<svg width="28" height="35" viewBox="0 0 28 35" fill="none" xmlns="http://www.w3.org/2000/svg">
<path d="M26.56 17H23.766V15.9C23.0033 16.8093 21.8813 17.264 20.4 17.264C19.4467 17.264 18.5887 16.956 17.826 16.34C17.078 15.7093 16.704 14.844 16.704 13.744C16.704 12.6 17.0707 11.742 17.804 11.17C18.552 10.598 19.4173 10.312 20.4 10.312C21.9107 10.312 23.0327 10.7447 23.766 11.61V10.18C23.766 9.63733 23.5533 9.20467 23.128 8.882C22.7027 8.55933 22.138 8.398 21.434 8.398C20.2753 8.398 19.2413 8.816 18.332 9.652L17.276 7.782C18.5373 6.66733 20.0847 6.11 21.918 6.11C23.282 6.11 24.3967 6.42533 25.262 7.056C26.1273 7.68667 26.56 8.71333 26.56 10.136V17ZM21.522 15.372C22.5633 15.372 23.3113 15.064 23.766 14.448V13.128C23.3113 12.512 22.5633 12.204 21.522 12.204C20.95 12.204 20.4733 12.3507 20.092 12.644C19.7107 12.9227 19.52 13.3113 19.52 13.81C19.52 14.294 19.7107 14.6753 20.092 14.954C20.4733 15.2327 20.95 15.372 21.522 15.372Z" fill="black"/>
<path d="M22.336 32.264C20.6933 32.264 19.344 31.7433 18.288 30.702C17.232 29.6607 16.704 28.3187 16.704 26.676C16.704 25.048 17.232 23.7133 18.288 22.672C19.344 21.6307 20.6933 21.11 22.336 21.11C24.2133 21.11 25.614 21.748 26.538 23.024L24.712 24.74C24.1987 23.9773 23.4507 23.596 22.468 23.596C21.6173 23.596 20.9207 23.882 20.378 24.454C19.85 25.0113 19.586 25.752 19.586 26.676C19.586 27.6 19.85 28.348 20.378 28.92C20.9207 29.492 21.6173 29.778 22.468 29.778C23.4213 29.778 24.1693 29.3967 24.712 28.634L26.538 30.328C25.614 31.6187 24.2133 32.264 22.336 32.264Z" fill="black"/>
<path d="M4.18 28.59C4.41467 28.9273 4.75933 29.2133 5.214 29.448C5.66867 29.668 6.12333 29.778 6.578 29.778C7.38467 29.778 8.03733 29.4993 8.536 28.942C9.03467 28.37 9.284 27.622 9.284 26.698C9.284 25.774 9.03467 25.026 8.536 24.454C8.03733 23.882 7.38467 23.596 6.578 23.596C6.12333 23.596 5.66867 23.7133 5.214 23.948C4.75933 24.1827 4.41467 24.476 4.18 24.828V28.59ZM4.18 32H1.386V17.326H4.18V22.738C5.016 21.6527 6.10867 21.11 7.458 21.11C8.83667 21.11 9.966 21.616 10.846 22.628C11.726 23.64 12.166 24.9967 12.166 26.698C12.166 28.4287 11.726 29.7927 10.846 30.79C9.966 31.7727 8.83667 32.264 7.458 32.264C6.138 32.264 5.04533 31.7213 4.18 30.636V32Z" fill="black"/>
</svg>
