<svg width="13" height="15" viewBox="0 0 13 15" fill="none" xmlns="http://www.w3.org/2000/svg">
<path d="M8.416 15C11.21 15 12.684 13.24 12.684 11.04C12.684 9.192 11.43 7.674 9.868 7.432C11.254 7.146 12.398 5.914 12.398 4.066C12.398 2.108 10.968 0.325999 8.174 0.325999H0.452V15H8.416ZM7.492 6.2H3.576V3.01H7.492C8.548 3.01 9.208 3.692 9.208 4.616C9.208 5.54 8.548 6.2 7.492 6.2ZM7.602 12.294H3.576V8.884H7.602C8.834 8.884 9.494 9.676 9.494 10.6C9.494 11.656 8.79 12.294 7.602 12.294Z" fill="black"/>
</svg>
