<svg width="26" height="26" viewBox="0 0 26 26" fill="none" xmlns="http://www.w3.org/2000/svg">
<g clip-path="url(#clip0)">
<path d="M10.5046 19.9342C11.0569 19.7196 11.6792 19.3845 12.3744 18.9142C12.1512 18.1492 11.7389 17.4283 11.1367 16.8261C10.3535 16.0428 9.35186 15.5584 8.26941 15.4265C7.80619 16.2951 7.52714 17.0411 7.40637 17.6717C8.72733 17.9594 9.84475 18.798 10.5046 19.9342Z" fill="black"/>
<path d="M6.42041 25.9989C8.44538 25.9852 10.0828 24.34 10.0828 22.3118C10.0828 20.2751 8.43175 18.624 6.39505 18.624C4.36742 18.624 2.72119 20.2694 2.70655 22.2936C2.70655 22.2925 2.70655 22.2916 2.70655 22.2916C2.70655 22.2916 2.70655 22.2923 2.70655 22.2941C2.70655 23.1342 1.59714 25.9996 0 25.9996H6.42041V25.9989Z" fill="black"/>
<path d="M25.885 0.0937124L25.8849 0.0938186L25.8746 0.0843737L25.8747 0.0842675C25.0561 -0.662834 18.0833 3.63332 12.7814 9.41492C11.0056 11.3699 9.71761 13.0392 8.84103 14.4423C9.98763 14.67 11.0418 15.2305 11.8871 16.0759C12.5251 16.7139 12.9879 17.4619 13.2761 18.2592C14.5632 17.2639 16.0628 15.8617 17.786 13.9826C23.0605 8.17605 26.7036 0.840867 25.885 0.0937124Z" fill="black"/>
</g>
<defs>
<clipPath id="clip0">
<rect width="26" height="26" fill="white"/>
</clipPath>
</defs>
</svg>
