<svg width="28" height="28" viewBox="0 0 28 28" fill="none" xmlns="http://www.w3.org/2000/svg">
<path d="M24.5002 23.3335H3.50016C2.85616 23.3335 2.3335 23.8562 2.3335 24.5002C2.3335 25.1442 2.85616 25.6668 3.50016 25.6668H24.5002C25.1442 25.6668 25.6668 25.1442 25.6668 24.5002C25.6668 23.8562 25.1442 23.3335 24.5002 23.3335Z" fill="black"/>
<path d="M10.7098 22.1657C11.5883 22.1657 12.4668 21.8309 13.1353 21.1624L21.9401 12.3575C22.3963 11.9014 22.3963 11.164 21.9401 10.7079L12.3349 1.10268C11.8788 0.646517 11.1414 0.646517 10.6853 1.10268L1.87928 9.90635C0.542276 11.2434 0.542276 13.4204 1.87928 14.7574L8.28311 21.1612C8.95278 21.8309 9.83128 22.1657 10.7098 22.1657V22.1657ZM11.5101 3.57602L19.4656 11.5315L19.3303 11.6669H3.45661C3.48461 11.6319 3.49744 11.5887 3.53011 11.556L11.5101 3.57602Z" fill="black"/>
<path d="M19.8335 19.1534C19.8335 20.8147 21.1425 22.1669 22.7501 22.1669C24.3578 22.1669 25.6668 20.8147 25.6668 19.1534C25.6668 17.814 23.9938 15.1715 23.4805 14.3945C23.1573 13.9022 22.343 13.9022 22.0198 14.3945C21.5065 15.1715 19.8335 17.814 19.8335 19.1534V19.1534Z" fill="black"/>
</svg>
