<svg width="19" height="24" viewBox="0 0 19 24" fill="none" xmlns="http://www.w3.org/2000/svg">
<path d="M0.416016 0V10.5882H3.48343V3.05882H11.034V7.52941H15.5171V10.5882H18.5846V7.05882L11.2699 0H0.416016Z" fill="black"/>
<path d="M3.48343 21.1765V19.7647H0.416016V24H18.3486V19.7647H15.5171V21.1765H3.48343Z" fill="black"/>
<path d="M17.1366 19.5002H17.8651L17.6032 18.8204L11.9492 4.1464L11.8258 3.82617H11.4826H7.56663H7.22393L7.1003 4.14579L1.4243 18.8198L1.16112 19.5002H1.89062H5.45462H5.8022L5.9233 19.1744L6.7262 17.0142H12.3201L13.1026 19.1707L13.2221 19.5002H13.5726H17.1366ZM9.52463 8.91778L11.0996 13.2642H7.94963L9.52463 8.91778Z" fill="black" stroke="white"/>
</svg>
