<svg width="31" height="26" viewBox="0 0 31 26" fill="none" xmlns="http://www.w3.org/2000/svg">
<rect x="10" y="3" width="21" height="2" fill="black"/>
<rect x="10" y="12" width="21" height="2" fill="black"/>
<rect x="10" y="21" width="21" height="2" fill="black"/>
<path d="M2.76 6V0.664H1.768L0.088 2.352L0.736 3.032L1.624 2.128V6H2.76Z" fill="black"/>
<path d="M4.392 15V14H2.216C3.6 12.992 4.352 12.2 4.352 11.288C4.352 10.224 3.448 9.584 2.312 9.584C1.568 9.584 0.776 9.856 0.256 10.456L0.904 11.208C1.264 10.832 1.728 10.592 2.336 10.592C2.776 10.592 3.2 10.824 3.2 11.288C3.2 11.944 2.56 12.496 0.376 14.112V15H4.392Z" fill="black"/>
<path d="M2.264 25.096C3.544 25.096 4.368 24.448 4.368 23.528C4.368 22.728 3.664 22.304 3.12 22.248C3.712 22.144 4.288 21.704 4.288 21.032C4.288 20.144 3.52 19.584 2.272 19.584C1.336 19.584 0.664 19.944 0.232 20.432L0.8 21.144C1.176 20.784 1.64 20.592 2.152 20.592C2.712 20.592 3.144 20.8 3.144 21.224C3.144 21.616 2.752 21.792 2.16 21.792C1.96 21.792 1.592 21.792 1.496 21.784V22.808C1.576 22.8 1.936 22.792 2.16 22.792C2.904 22.792 3.232 22.984 3.232 23.408C3.232 23.808 2.872 24.088 2.224 24.088C1.704 24.088 1.12 23.864 0.752 23.48L0.16 24.24C0.552 24.72 1.28 25.096 2.264 25.096Z" fill="black"/>
</svg>
