<svg width="26" height="26" viewBox="0 0 26 26" fill="none" xmlns="http://www.w3.org/2000/svg">
<path d="M4.27722 5.67504C3.92529 6.13622 3.67684 6.22027 3.67684 5.83V5.12194C3.67684 4.10661 2.85375 3.28352 1.83842 3.28352C0.823087 3.28352 0 4.10661 0 5.12194V11.4251C0 12.4404 0.823087 13.2635 1.83842 13.2635H8.14158C9.15691 13.2635 9.98 12.4404 9.98 11.4251C9.98 10.4098 9.15691 9.58668 8.14158 9.58668C8.14158 9.58668 7.83745 9.58668 7.46189 9.58668C7.08633 9.58668 6.98075 9.15754 7.29906 8.67272C8.74458 6.47344 11.2228 5.10356 13.9011 5.10356C18.2555 5.10356 21.7979 8.64593 21.7979 13.0004C21.7979 17.3543 18.2555 20.8966 13.9011 20.8966C12.7408 20.8966 11.8 21.8374 11.8 22.9977C11.8 24.158 12.7408 25.0987 13.9011 25.0987C20.5725 25.0993 26 19.6717 26 13.0009C26 6.32952 20.5725 0.901978 13.9011 0.901978C10.0872 0.901452 6.5369 2.71414 4.27722 5.67504Z" fill="black"/>
</svg>
