<svg width="30" height="30" viewBox="0 0 30 30" fill="none" xmlns="http://www.w3.org/2000/svg">
<g clip-path="url(#clip0)">
<path d="M26.1683 7.28859L19.1372 0.25752C18.9731 0.0933398 18.7491 0 18.5156 0H6.21094C4.75705 0 3.57422 1.18283 3.57422 2.63672V27.3633C3.57422 28.8172 4.75705 30 6.21094 30H23.7891C25.2429 30 26.4258 28.8172 26.4258 27.3633V7.91016C26.4258 7.67051 26.3252 7.44545 26.1683 7.28859ZM19.3945 3.00076L23.425 7.03125H20.2734C19.7888 7.03125 19.3945 6.63697 19.3945 6.15234V3.00076ZM23.7891 28.2422H6.21094C5.72631 28.2422 5.33203 27.8479 5.33203 27.3633V2.63672C5.33203 2.15209 5.72631 1.75781 6.21094 1.75781H17.6367V6.15234C17.6367 7.60623 18.8196 8.78906 20.2734 8.78906H24.668V27.3633C24.668 27.8479 24.2737 28.2422 23.7891 28.2422Z" fill="black"/>
<path d="M20.2734 12.4219H9.72656C9.24117 12.4219 8.84766 12.8154 8.84766 13.3008C8.84766 13.7862 9.24117 14.1797 9.72656 14.1797H20.2734C20.7588 14.1797 21.1523 13.7862 21.1523 13.3008C21.1523 12.8154 20.7588 12.4219 20.2734 12.4219Z" fill="black"/>
<path d="M20.2734 15.9375H9.72656C9.24117 15.9375 8.84766 16.331 8.84766 16.8164C8.84766 17.3018 9.24117 17.6953 9.72656 17.6953H20.2734C20.7588 17.6953 21.1523 17.3018 21.1523 16.8164C21.1523 16.331 20.7588 15.9375 20.2734 15.9375Z" fill="black"/>
<path d="M20.2734 19.4531H9.72656C9.24117 19.4531 8.84766 19.8466 8.84766 20.332C8.84766 20.8174 9.24117 21.2109 9.72656 21.2109H20.2734C20.7588 21.2109 21.1523 20.8174 21.1523 20.332C21.1523 19.8466 20.7588 19.4531 20.2734 19.4531Z" fill="black"/>
<path d="M16.7578 22.9688H9.72656C9.24117 22.9688 8.84766 23.3623 8.84766 23.8477C8.84766 24.333 9.24117 24.7266 9.72656 24.7266H16.7578C17.2432 24.7266 17.6367 24.333 17.6367 23.8477C17.6367 23.3623 17.2432 22.9688 16.7578 22.9688Z" fill="black"/>
<path d="M28.4695 14.2504L28.4695 14.2504L25.0297 10.8107C24.6157 10.3965 23.9443 10.3963 23.5302 10.8106L28.4695 14.2504ZM28.4695 14.2504C28.6764 14.4573 28.78 14.7294 28.78 15.0001C28.78 15.2706 28.6765 15.5426 28.4697 15.7495L28.4696 15.7496L25.0297 19.1894C25.0297 19.1894 25.0297 19.1894 25.0297 19.1894C24.6157 19.6035 23.9444 19.6036 23.5303 19.1894C23.5303 19.1894 23.5303 19.1894 23.5302 19.1894C23.1163 18.7753 23.1164 18.1041 23.5302 17.6901L23.5303 17.6901L26.2204 15.0001L23.5302 12.31C23.1163 11.896 23.1162 11.2248 23.53 10.8108L28.4695 14.2504Z" fill="black" stroke="white"/>
<rect x="13" y="24" width="24" height="5" fill="black"/>
<path d="M18.76 29H17.624V25.128L16.736 26.032L16.088 25.352L17.768 23.664H18.76V29ZM23.0091 28.688C22.6677 28.96 22.2544 29.096 21.7691 29.096C21.2837 29.096 20.8677 28.96 20.5211 28.688C20.1797 28.4107 19.9344 28.0693 19.7851 27.664C19.6357 27.2587 19.5611 26.816 19.5611 26.336C19.5611 25.856 19.6357 25.4133 19.7851 25.008C19.9344 24.6027 20.1797 24.264 20.5211 23.992C20.8677 23.72 21.2837 23.584 21.7691 23.584C22.2544 23.584 22.6677 23.72 23.0091 23.992C23.3504 24.264 23.5957 24.6027 23.7451 25.008C23.8997 25.4133 23.9771 25.856 23.9771 26.336C23.9771 26.816 23.8997 27.2587 23.7451 27.664C23.5957 28.0693 23.3504 28.4107 23.0091 28.688ZM20.9691 27.608C21.1397 27.928 21.4064 28.088 21.7691 28.088C22.1317 28.088 22.3957 27.928 22.5611 27.608C22.7317 27.288 22.8171 26.864 22.8171 26.336C22.8171 25.808 22.7317 25.3867 22.5611 25.072C22.3957 24.752 22.1317 24.592 21.7691 24.592C21.4064 24.592 21.1397 24.752 20.9691 25.072C20.7984 25.3867 20.7131 25.808 20.7131 26.336C20.7131 26.864 20.7984 27.288 20.9691 27.608ZM27.97 28.688C27.6287 28.96 27.2153 29.096 26.73 29.096C26.2447 29.096 25.8287 28.96 25.482 28.688C25.1407 28.4107 24.8953 28.0693 24.746 27.664C24.5967 27.2587 24.522 26.816 24.522 26.336C24.522 25.856 24.5967 25.4133 24.746 25.008C24.8953 24.6027 25.1407 24.264 25.482 23.992C25.8287 23.72 26.2447 23.584 26.73 23.584C27.2153 23.584 27.6287 23.72 27.97 23.992C28.3113 24.264 28.5567 24.6027 28.706 25.008C28.8607 25.4133 28.938 25.856 28.938 26.336C28.938 26.816 28.8607 27.2587 28.706 27.664C28.5567 28.0693 28.3113 28.4107 27.97 28.688ZM25.93 27.608C26.1007 27.928 26.3673 28.088 26.73 28.088C27.0927 28.088 27.3567 27.928 27.522 27.608C27.6927 27.288 27.778 26.864 27.778 26.336C27.778 25.808 27.6927 25.3867 27.522 25.072C27.3567 24.752 27.0927 24.592 26.73 24.592C26.3673 24.592 26.1007 24.752 25.93 25.072C25.7593 25.3867 25.674 25.808 25.674 26.336C25.674 26.864 25.7593 27.288 25.93 27.608Z" fill="white"/>
</g>
<defs>
<clipPath id="clip0">
<rect width="30" height="30" fill="white"/>
</clipPath>
</defs>
</svg>
