<svg width="28" height="28" viewBox="0 0 28 28" fill="none" xmlns="http://www.w3.org/2000/svg">
<path d="M24.7188 2.73438H3.28125C1.47197 2.73438 0 4.20634 0 6.01562V21.9844C0 23.7937 1.47197 25.2656 3.28125 25.2656H24.7188C26.528 25.2656 28 23.7937 28 21.9844V6.01562C28 4.20634 26.528 2.73438 24.7188 2.73438ZM8.53125 23.0781H3.28125C2.67816 23.0781 2.1875 22.5875 2.1875 21.9844V18.5938H8.53125V23.0781ZM8.53125 16.4062H2.1875V11.5938H8.53125V16.4062ZM8.53125 9.40625H2.1875V6.01562C2.1875 5.41253 2.67816 4.92188 3.28125 4.92188H8.53125V9.40625ZM17.3359 23.0781H10.7188V18.5938H17.3359V23.0781ZM17.3359 16.4062H10.7188V11.5938H17.3359V16.4062ZM17.3359 9.40625H10.7188V4.92188H17.3359V9.40625ZM25.8125 21.9844C25.8125 22.5875 25.3218 23.0781 24.7188 23.0781H19.5234V18.5938H25.8125V21.9844ZM25.8125 16.4062H19.5234V11.5938H25.8125V16.4062ZM25.8125 9.40625H19.5234V4.92188H24.7188C25.3218 4.92188 25.8125 5.41253 25.8125 6.01562V9.40625Z" fill="black"/>
</svg>
