<svg width="18" height="14" viewBox="0 0 18 14" fill="none" xmlns="http://www.w3.org/2000/svg">
<rect width="8" height="2" transform="matrix(-1 0 0 1 18 0)" fill="black"/>
<rect width="8" height="2" transform="matrix(-1 0 0 1 18 3)" fill="black"/>
<rect width="8" height="2" transform="matrix(-1 0 0 1 18 6)" fill="black"/>
<rect width="8" height="2" transform="matrix(-1 0 0 1 18 9)" fill="black"/>
<rect width="8" height="2" transform="matrix(-1 0 0 1 18 12)" fill="black"/>
<rect width="8" height="2" transform="matrix(-1 0 0 1 8 0)" fill="black"/>
<rect width="8" height="2" transform="matrix(-1 0 0 1 8 3)" fill="black"/>
<rect width="8" height="2" transform="matrix(-1 0 0 1 8 6)" fill="black"/>
<rect width="8" height="2" transform="matrix(-1 0 0 1 8 9)" fill="black"/>
<rect width="8" height="2" transform="matrix(-1 0 0 1 8 12)" fill="black"/>
</svg>
