<svg width="37" height="31" viewBox="0 0 37 31" fill="none" xmlns="http://www.w3.org/2000/svg">
<path d="M32.9999 26.7937L32.9998 26.7937L26.7959 20.5945C28.3055 18.8104 29.2205 16.5074 29.2205 13.9877C29.2205 8.34095 24.6269 3.75244 18.9853 3.75244C13.3436 3.75244 8.75 8.34095 8.75 13.9877C8.75 19.6345 13.3436 24.223 18.9853 24.223C21.5002 24.223 23.8077 23.3079 25.5921 21.7983L31.7913 27.9974C31.9577 28.1638 32.1743 28.2475 32.3956 28.2475C32.6168 28.2475 32.8334 28.1638 32.9999 27.9974C33.3334 27.6639 33.3334 27.1272 32.9999 26.7937ZM27.5166 13.9877C27.5166 18.6899 23.6875 22.519 18.9853 22.519C14.283 22.519 10.4539 18.6899 10.4539 13.9877C10.4539 9.28548 14.283 5.45637 18.9853 5.45637C23.6876 5.45637 27.5166 9.28065 27.5166 13.9877Z" fill="black" stroke="black" stroke-width="0.5"/>
</svg>
