<svg width="26" height="26" viewBox="0 0 26 26" fill="none" xmlns="http://www.w3.org/2000/svg">
<g clip-path="url(#clip0)">
<path d="M24.9167 24.9167H14.0833C13.4843 24.9167 13 24.4313 13 23.8333C13 23.2353 13.4843 22.75 14.0833 22.75H24.9167C25.5158 22.75 26 23.2353 26 23.8333C26 24.4313 25.5158 24.9167 24.9167 24.9167Z" fill="black"/>
<path d="M24.9167 14.0835H14.0833C13.4843 14.0835 13 13.5982 13 13.0002C13 12.4022 13.4843 11.9168 14.0833 11.9168H24.9167C25.5158 11.9168 26 12.4022 26 13.0002C26 13.5982 25.5158 14.0835 24.9167 14.0835Z" fill="black"/>
<path d="M24.9167 3.24982H14.0833C13.4843 3.24982 13 2.76449 13 2.16649C13 1.56849 13.4843 1.08316 14.0833 1.08316H24.9167C25.5158 1.08316 26 1.56849 26 2.16649C26 2.76449 25.5158 3.24982 24.9167 3.24982Z" fill="black"/>
<path d="M8.93649 20.5833H6.50007V5.41667H8.93649C9.25932 5.41667 9.55182 5.22492 9.68182 4.92917C9.72732 4.82408 9.74899 4.71467 9.74899 4.60417C9.74899 4.40267 9.67424 4.20442 9.53232 4.05058L6.01149 0.258917C5.85766 0.09425 5.64207 0 5.41566 0C5.18924 0 4.97474 0.09425 4.82091 0.258917L1.30008 4.05058C1.08016 4.28783 1.02274 4.63233 1.15058 4.92917C1.27949 5.22492 1.57199 5.41667 1.89482 5.41667H4.33341V20.5833H1.89482C1.57199 20.5833 1.27949 20.7751 1.14949 21.0708C1.02166 21.3666 1.07908 21.7122 1.29899 21.9494L4.81982 25.7411C4.97474 25.9058 5.19032 26 5.41566 26C5.64099 26 5.85766 25.9058 6.01149 25.7411L9.53232 21.9494C9.67424 21.7956 9.74899 21.5973 9.74899 21.3958C9.74899 21.2853 9.72624 21.1759 9.68182 21.0708C9.55291 20.7751 9.26041 20.5833 8.93649 20.5833Z" fill="black"/>
</g>
<defs>
<clipPath id="clip0">
<rect width="26" height="26" fill="white"/>
</clipPath>
</defs>
</svg>
